<svg width="132" height="77" viewBox="0 0 132 77" fill="none" xmlns="http://www.w3.org/2000/svg">
<g clip-path="url(#clip0_2058_6489)">
<path d="M67.9004 40.1492C77.698 39.0127 87.4832 43.0893 93.1591 51.1933C96.4454 55.8877 98.0794 61.558 98.0855 67.3024L67.9004 70.4896V40.1492Z" fill="#243F5D"/>
<path d="M64.0992 40.5507V70.8911L33.9141 74.0784C33.9878 71.8115 34.1782 69.594 34.6512 67.3704C37.6181 53.4355 49.9157 42.0023 64.0992 40.5445V40.5507Z" fill="#243F5D"/>
<path d="M67.9004 36.3319V12.6377C67.9004 11.6927 68.6252 9.99407 69.1351 9.17873C70.6277 6.78831 72.79 5.57148 75.548 5.18852C82.9254 4.16317 90.4256 3.82344 97.8152 2.87839L98.0548 2.7981C98.2084 18.586 85.9107 33.0459 70.6032 35.9675C69.7186 36.1343 68.8034 36.3011 67.9065 36.3258L67.9004 36.3319Z" fill="#243F5D"/>
<path d="M0 47.3205C9.33073 46.2581 18.6922 49.8838 24.4786 57.3207C28.2686 62.1942 30.1544 68.2351 30.1913 74.4305C30.179 74.486 29.7674 74.5416 29.6691 74.554C22.4208 75.5423 15.0557 75.8696 7.8012 76.8641C4.44116 77.6918 0 74.6343 0 71.0888V47.3143L0 47.3205Z" fill="#243F5D"/>
<path d="M132 29.6425L128.708 29.8031C114.838 29.7475 103.271 19.5063 101.969 5.54678C101.877 4.52761 101.92 3.47755 101.84 2.47691L102.006 2.40279C105.495 2.07542 108.978 1.65539 112.467 1.28479C116.392 0.870941 120.698 0.2162 124.592 0.0123655C127.338 -0.129701 129.734 0.759758 131.14 3.2243C131.454 3.76786 132 5.10823 132 5.70738V29.6363V29.6425Z" fill="#243F5D"/>
<path d="M132 33.3856V57.3145C132 58.5005 130.832 60.6685 130.058 61.5765C128.314 63.621 126.471 64.2758 123.879 64.6031C116.901 65.4741 109.806 66.1474 102.803 66.833C102.699 66.8453 101.814 66.9256 101.814 66.87C101.98 66.2215 101.851 65.542 101.894 64.8749C102.803 49.0006 116.287 34.9422 132.006 33.3794L132 33.3856Z" fill="#243F5D"/>
</g>
<defs>
<clipPath id="clip0_2058_6489">
<rect width="132" height="77" fill="white"/>
</clipPath>
</defs>
</svg>
